#!OML:ASF X:\für Bonn\!DataBase\2005_08_11_Bastian_Final\c3d\Bastian.ASF
:FULLY-SPECIFIED
:DEGREES
226
root 8.77058 15.0786 -3.82459 191.013 82.1908 -162.239
lowerback 51.0872 -4.84803 6.42303
upperback 18.1702 1.95083 5.07305
thorax -0.37647 2.56457 1.79397
lowerneck -8.06155 -9.79948 -2.69842
upperneck -23.4632 -10.756 12.1573
head -4.89349 -5.45292 4.37648
rclavicle 2.06736e-014 3.73715e-014
rhumerus 9.42162 36.0505 -55.0743
rradius 33.7099
rwrist -6.06604
rhand -22.603 2.97449
rfingers 7.12502
rthumb 3.82649 -26.9709
lclavicle 2.06736e-014 3.73715e-014
lhumerus 2.35897 -24.7253 81.472
lradius 42.7584
lwrist 19.3277
lhand -12.7845 -9.58279
lfingers 7.12502
lthumb 13.3009 19.9728
rfemur -39.7716 -1.53042 22.7225
rtibia 72.9711
rfoot -18.0997 -6.3613
rtoes -7.20915
lfemur -27.8291 5.45929 -20.2765
ltibia 75.489
lfoot -31.9003 -5.30366
ltoes -0.665099
227
root 8.81286 15.2096 -3.81141 191.028 82.0966 -162.38
lowerback 50.2745 -4.79759 6.41942
upperback 18.1495 1.84393 5.02083
thorax -0.306318 2.49987 1.76042
lowerneck -8.04521 -9.76608 -2.70372
upperneck -23.1904 -10.7392 12.1157
head -4.81387 -5.44226 4.35222
rclavicle 3.18055e-015 2.94201e-014
rhumerus 8.3001 36.4602 -56.0459
rradius 33.9029
rwrist -5.98918
rhand -22.3707 2.98103
rfingers 7.12502
rthumb 4.05079 -26.9602
lclavicle 3.18055e-015 2.94201e-014
lhumerus 2.19289 -24.7569 81.5391
lradius 42.7198
lwrist 19.3972
lhand -12.7749 -9.56526
lfingers 7.12502
lthumb 13.3102 19.9897
rfemur -38.8366 -1.47723 22.7743
rtibia 71.4229
rfoot -17.683 -6.39955
rtoes -6.94605
lfemur -26.889 5.36532 -20.1633
ltibia 73.6366
lfoot -31.2363 -5.24741
ltoes -0.75827
228
root 8.85606 15.3371 -3.79899 190.983 82.0026 -162.542
lowerback 49.491 -4.75053 6.40206
upperback 18.1245 1.73361 4.9701
thorax -0.238472 2.43278 1.73658
lowerneck -8.09668 -9.72469 -2.6575
upperneck -22.8254 -10.7322 11.9948
head -4.70347 -5.43414 4.28807
rclavicle 3.65764e-014 -3.18055e-015
rhumerus 7.15313 36.8082 -57.0501
rradius 34.0849
rwrist -5.89179
rhand -22.1385 2.98518
rfingers 7.12502
rthumb 4.27502 -26.9517
lclavicle 3.65764e-014 -3.18055e-015
lhumerus 1.99444 -24.7536 81.6058
lradius 42.703
lwrist 19.4641
lhand -12.7358 -9.54357
lfingers 7.12502
lthumb 13.3479 20.0089
rfemur -37.8723 -1.44559 22.8116
rtibia 69.8881
rfoot -17.2704 -6.36848
rtoes -6.65185
lfemur -25.9107 5.29006 -20.0458
ltibia 71.7955
lfoot -30.5988 -5.20596
ltoes -0.942489
229
root 8.90008 15.4599 -3.78606 190.682 81.8973 -162.958
lowerback 48.7044 -4.71196 6.39585
upperback 18.0826 1.6158 4.89609
thorax -0.180433 2.36336 1.68509
lowerneck -8.12399 -9.70613 -2.65654
upperneck -22.424 -10.7522 11.9323
head -4.57668 -5.44054 4.24826
rclavicle 5.725e-014 3.57812e-014
rhumerus 5.94022 37.1247 -58.1134
rradius 34.2327
rwrist -5.84055
rhand -21.993 3.03417
rfingers 7.12502
rthumb 4.41556 -26.8998
lclavicle 5.725e-014 3.57812e-014
lhumerus 1.78523 -24.8016 81.6584
lradius 42.6732
lwrist 19.4993
lhand -12.7055 -9.52041
lfingers 7.12502
lthumb 13.3771 20.0301
rfemur -36.9254 -1.41943 22.8203
rtibia 68.3791
rfoot -16.8627 -6.40323
rtoes -6.37969
lfemur -24.9346 5.21998 -19.9707
ltibia 69.9604
lfoot -29.9467 -5.14367
ltoes -1.27116
230
root 8.94611 15.5804 -3.77362 190.432 81.8105 -163.312
lowerback 47.9071 -4.65519 6.3787
upperback 18.0436 1.51342 4.82096
thorax -0.111757 2.30047 1.63205
lowerneck -8.16502 -9.66927 -2.57781
upperneck -22.0352 -10.7532 11.8222
head -4.46192 -5.43993 4.18256
rclavicle -3.97569e-014 0
rhumerus 4.69379 37.2866 -59.2613
rradius 34.3506
rwrist -5.68576
rhand -21.7881 3.03779
rfingers 7.12502
rthumb 4.61338 -26.892
lclavicle -3.97569e-014 0
lhumerus 1.56211 -24.869 81.6988
lradius 42.6377
lwrist 19.5189
lhand -12.6717 -9.53531
lfingers 7.12502
lthumb 13.4097 20.0131
rfemur -35.9716 -1.40154 22.8349
rtibia 66.8905
rfoot -16.457 -6.41893
rtoes -6.24786
lfemur -23.9404 5.15743 -19.8948
ltibia 68.1377
lfoot -29.317 -5.06691
ltoes -1.54589
231
root 8.99298 15.6967 -3.76125 190.092 81.714 -163.747
lowerback 46.1362 -4.494 6.21512
upperback 18.8944 1.35166 4.91235
thorax 0.0806837 2.23603 1.64703
lowerneck -8.20041 -9.63409 -2.66359
upperneck -21.6764 -10.7253 11.8596
head -4.33809 -5.41967 4.18909
rclavicle -3.65764e-014 4.45278e-014
rhumerus 3.50531 37.5142 -60.3147
rradius 34.4599
rwrist -5.65223
rhand -21.6307 2.98438
rfingers 7.12502
rthumb 4.76534 -26.942
lclavicle -3.65764e-014 4.45278e-014
lhumerus 1.3737 -24.9249 81.756
lradius 42.5798
lwrist 19.5632
lhand -12.6935 -9.56903
lfingers 7.12502
lthumb 13.3886 19.9808
rfemur -35.0125 -1.38176 22.8293
rtibia 65.4188
rfoot -16.0959 -6.40155
rtoes -5.80887
lfemur -22.9427 5.10688 -19.8219
ltibia 66.3287
lfoot -28.6877 -5.03923
ltoes -1.66869
232
root 9.0413 15.8086 -3.74879 190.11 81.6318 -163.82
lowerback 45.3385 -4.43984 6.20786
upperback 18.8234 1.2571 4.85034
thorax 0.187475 2.17448 1.61218
lowerneck -8.1834 -9.58777 -2.76853
upperneck -21.3651 -10.6726 11.9346
head -4.23527 -5.38916 4.21522
rclavicle 7.31528e-014 8.34896e-014
rhumerus 2.26174 37.6476 -61.4285
rradius 34.5652
rwrist -5.55
rhand -21.4373 2.95172
rfingers 7.12502
rthumb 4.9521 -26.9704
lclavicle 7.31528e-014 8.34896e-014
lhumerus 1.15028 -24.9804 81.8026
lradius 42.5283
lwrist 19.5959
lhand -12.692 -9.6081
lfingers 7.12502
lthumb 13.3901 19.9416
rfemur -34.0644 -1.34009 22.8877
rtibia 63.9673
rfoot -15.7081 -6.44399
rtoes -5.60742
lfemur -21.9604 5.06607 -19.6991
ltibia 64.5407
lfoot -28.04 -5.02768
ltoes -1.82296
233
root 9.09019 15.9173 -3.73633 190.025 81.5421 -163.983
lowerback 44.5379 -4.38597 6.19298
upperback 18.7588 1.16266 4.79524
thorax 0.308133 2.11294 1.58855
lowerneck -8.22795 -9.55524 -2.88087
upperneck -21.0147 -10.6455 11.9804
head -4.1111 -5.36695 4.22867
rclavicle -6.36111e-015 -1.59028e-015
rhumerus 1.03948 37.8212 -62.4708
rradius 34.6937
rwrist -5.50441
rhand -21.2546 2.86276
rfingers 7.12502
rthumb 5.12855 -27.0552
lclavicle -6.36111e-015 -1.59028e-015
lhumerus 0.943253 -25.0032 81.8943
lradius 42.3977
lwrist 19.5336
lhand -12.7326 -9.74026
lfingers 7.12502
lthumb 13.351 19.812
rfemur -33.1141 -1.30335 22.9345
rtibia 62.5384
rfoot -15.3517 -6.47267
rtoes -5.53622
lfemur -20.9649 5.04556 -19.5893
ltibia 62.7699
lfoot -27.4419 -4.94756
ltoes -2.44433
234
root 9.13976 16.021 -3.72402 189.65 81.4344 -164.386
lowerback 43.7422 -4.3502 6.15509
upperback 18.7306 1.04585 4.71857
thorax 0.474923 2.04515 1.56278
lowerneck -8.34745 -9.51509 -2.93456
upperneck -20.6683 -10.6093 11.9997
head -3.98316 -5.33969 4.22204
rclavicle -3.97569e-014 -4.77083e-014
rhumerus -0.119286 37.9756 -63.5124
rradius 34.7967
rwrist -5.50966
rhand -21.0977 2.76527
rfingers 7.12502
rthumb 5.28 -27.149
lclavicle -3.97569e-014 -4.77083e-014
lhumerus 0.787859 -25.0766 81.8939
lradius 42.3108
lwrist 19.5604
lhand -12.7316 -9.82008
lfingers 7.12502
lthumb 13.352 19.7321
rfemur -32.1298 -1.30817 22.9344
rtibia 61.1439
rfoot -15.0221 -6.48228
rtoes -5.11666
lfemur -19.9236 4.99371 -19.5116
ltibia 61.0149
lfoot -26.8263 -4.91558
ltoes -2.73796
235
root 9.19115 16.1193 -3.71102 189.277 81.3406 -164.745
lowerback 43.0062 -4.28855 6.07581
upperback 18.6785 0.954263 4.67692
thorax 0.603111 1.9823 1.58458
lowerneck -8.47633 -9.4891 -3.05107
upperneck -20.2667 -10.598 12.0123
head -3.832 -5.31999 4.22008
rclavicle 4.92986e-014 1.03368e-014
rhumerus -1.34589 38.1199 -64.5284
rradius 34.9163
rwrist -5.50499
rhand -20.9249 2.67974
rfingers 7.12502
rthumb 5.44682 -27.2303
lclavicle 4.92986e-014 1.03368e-014
lhumerus 0.55291 -25.1479 81.9794
lradius 42.1953
lwrist 19.6145
lhand -12.7731 -9.95763
lfingers 7.12502
lthumb 13.3119 19.5972
rfemur -31.1129 -1.27586 22.9419
rtibia 59.7917
rfoot -14.725 -6.52463
rtoes -4.71716
lfemur -18.8309 4.96076 -19.4276
ltibia 59.2823
lfoot -26.2414 -4.88973
ltoes -3.08799
236
root 9.24408 16.2141 -3.69904 189.118 81.2687 -164.883
lowerback 42.3461 -4.23081 6.05998
upperback 18.5324 0.878456 4.60649
thorax 0.614043 1.92422 1.53478
lowerneck -8.538 -9.47269 -3.12817
upperneck -19.7837 -10.6196 11.9847
head -3.66992 -5.32101 4.19939
rclavicle 6.04305e-014 6.2816e-014
rhumerus -2.74157 38.1419 -65.7209
rradius 34.9769
rwrist -5.45502
rhand -20.7129 2.63986
rfingers 7.12502
rthumb 5.65156 -27.2648
lclavicle 6.04305e-014 6.2816e-014
lhumerus 0.179851 -25.2634 82.0736
lradius 42.1196
lwrist 19.6038
lhand -12.7542 -9.99513
lfingers 7.12502
lthumb 13.3301 19.5585
rfemur -30.1129 -1.25368 22.9798
rtibia 58.4822
rfoot -14.4371 -6.51377
rtoes -4.30298
lfemur -17.7402 4.97024 -19.3072
ltibia 57.5701
lfoot -25.6676 -4.88573
ltoes -3.38966
237
root 9.29723 16.3018 -3.68543 188.726 81.1763 -165.236
lowerback 41.6877 -4.16056 5.98893
upperback 18.4017 0.804137 4.55746
thorax 0.64402 1.86357 1.53536
lowerneck -8.60985 -9.44515 -3.17046
upperneck -19.3274 -10.6308 11.901
head -3.52189 -5.31613 4.15778
rclavicle 3.81667e-014 4.77083e-014
rhumerus -4.07041 38.2212 -66.8131
rradius 35.0517
rwrist -5.58305
rhand -20.4959 2.60989
rfingers 7.12502
rthumb 5.86108 -27.289
lclavicle 3.81667e-014 4.77083e-014
lhumerus -0.0845307 -25.331 82.2
lradius 41.9563
lwrist 19.5911
lhand -12.7536 -10.0594
lfingers 7.12502
lthumb 13.3307 19.4942
rfemur -29.1297 -1.26389 22.9913
rtibia 57.2246
rfoot -14.1792 -6.52746
rtoes -3.88142
lfemur -16.6503 4.93397 -19.2168
ltibia 55.8938
lfoot -25.0879 -4.89886
ltoes -3.58003
